<?xml version="1.0" encoding="UTF-8" standalone="no"?>
<!-- Generator: Adobe Illustrator 19.0.0, SVG Export Plug-In . SVG Version: 6.00 Build 0)  -->

<svg
   xmlns:dc="http://purl.org/dc/elements/1.1/"
   xmlns:cc="http://creativecommons.org/ns#"
   xmlns:rdf="http://www.w3.org/1999/02/22-rdf-syntax-ns#"
   xmlns:svg="http://www.w3.org/2000/svg"
   xmlns="http://www.w3.org/2000/svg"
   xmlns:sodipodi="http://sodipodi.sourceforge.net/DTD/sodipodi-0.dtd"
   xmlns:inkscape="http://www.inkscape.org/namespaces/inkscape"
   version="1.1"
   id="Capa_1"
   x="0px"
   y="0px"
   viewBox="0 0 511.988 511.988"
   style="enable-background:new 0 0 511.988 511.988;"
   xml:space="preserve"
   sodipodi:docname="caffeine-on-symbolic.svg"
   inkscape:version="0.92.3 (2405546, 2018-03-11)"><metadata
   id="metadata192"><rdf:RDF><cc:Work
       rdf:about=""><dc:format>image/svg+xml</dc:format><dc:type
         rdf:resource="http://purl.org/dc/dcmitype/StillImage" /></cc:Work></rdf:RDF></metadata><defs
   id="defs190" /><sodipodi:namedview
   pagecolor="#ffffff"
   bordercolor="#666666"
   borderopacity="1"
   objecttolerance="10"
   gridtolerance="10"
   guidetolerance="10"
   inkscape:pageopacity="0"
   inkscape:pageshadow="2"
   inkscape:window-width="1920"
   inkscape:window-height="1017"
   id="namedview188"
   showgrid="false"
   inkscape:zoom="1.6289444"
   inkscape:cx="255.994"
   inkscape:cy="255.994"
   inkscape:window-x="0"
   inkscape:window-y="30"
   inkscape:window-maximized="1"
   inkscape:current-layer="Capa_1" />



<g
   id="g143">
	<g
   id="g141">
		<path
   d="M328.372,113.31c17.344-21.675,17.344-55.616,0-77.291c-3.691-4.608-10.368-5.376-14.997-1.664    c-4.608,3.691-5.355,10.389-1.664,14.997c10.987,13.717,10.987,36.907-0.021,50.667c-17.365,21.675-17.365,55.616,0,77.291    c2.112,2.645,5.205,4.011,8.341,4.011c2.325,0,4.693-0.768,6.656-2.347c4.608-3.691,5.355-10.411,1.664-14.997    C317.343,150.259,317.343,127.07,328.372,113.31z"
   id="path139" />
	</g>
</g>
<g
   id="g149">
	<g
   id="g147">
		<path
   d="M264.287,113.31c17.365-21.675,17.365-55.616,0-77.291c-3.669-4.608-10.389-5.355-14.997-1.664    c-4.608,3.691-5.355,10.411-1.664,14.997c11.008,13.717,11.008,36.907-0.021,50.667c-17.344,21.675-17.344,55.616,0,77.291    c2.112,2.645,5.205,4.011,8.341,4.011c2.325,0,4.672-0.768,6.656-2.347c4.608-3.691,5.355-10.389,1.664-14.997    C253.279,150.259,253.279,127.07,264.287,113.31z"
   id="path145" />
	</g>
</g>
<g
   id="g155">
	<g
   id="g153">
		<path
   d="M200.372,113.331c17.344-21.675,17.344-55.616,0-77.291c-3.669-4.608-10.368-5.376-14.997-1.664    c-4.587,3.669-5.333,10.389-1.664,14.976c10.987,13.717,10.987,36.907-0.021,50.667c-17.365,21.675-17.365,55.616,0,77.291    c2.112,2.645,5.205,4.011,8.341,4.011c2.325,0,4.693-0.768,6.656-2.325c4.608-3.691,5.355-10.411,1.664-14.997    C189.343,150.259,189.343,127.091,200.372,113.331z"
   id="path151" />
	</g>
</g>
<g
   id="g157">
</g>
<g
   id="g159">
</g>
<g
   id="g161">
</g>
<g
   id="g163">
</g>
<g
   id="g165">
</g>
<g
   id="g167">
</g>
<g
   id="g169">
</g>
<g
   id="g171">
</g>
<g
   id="g173">
</g>
<g
   id="g175">
</g>
<g
   id="g177">
</g>
<g
   id="g179">
</g>
<g
   id="g181">
</g>
<g
   id="g183">
</g>
<g
   id="g185">
</g>
</svg>