<?xml version="1.0" encoding="UTF-8" standalone="no"?>
<!-- Generator: Adobe Illustrator 19.0.0, SVG Export Plug-In . SVG Version: 6.00 Build 0)  -->

<svg
   xmlns:dc="http://purl.org/dc/elements/1.1/"
   xmlns:cc="http://creativecommons.org/ns#"
   xmlns:rdf="http://www.w3.org/1999/02/22-rdf-syntax-ns#"
   xmlns:svg="http://www.w3.org/2000/svg"
   xmlns="http://www.w3.org/2000/svg"
   xmlns:sodipodi="http://sodipodi.sourceforge.net/DTD/sodipodi-0.dtd"
   xmlns:inkscape="http://www.inkscape.org/namespaces/inkscape"
   version="1.1"
   id="Capa_1"
   x="0px"
   y="0px"
   viewBox="0 0 512.009 512.009"
   style="enable-background:new 0 0 512.009 512.009;"
   xml:space="preserve"
   sodipodi:docname="caffeine-off-symbolic.svg"
   inkscape:version="0.92.3 (2405546, 2018-03-11)"><metadata
   id="metadata168"><rdf:RDF><cc:Work
       rdf:about=""><dc:format>image/svg+xml</dc:format><dc:type
         rdf:resource="http://purl.org/dc/dcmitype/StillImage" /><dc:title></dc:title></cc:Work></rdf:RDF></metadata><defs
   id="defs166" /><sodipodi:namedview
   pagecolor="#ffffff"
   bordercolor="#666666"
   borderopacity="1"
   objecttolerance="10"
   gridtolerance="10"
   guidetolerance="10"
   inkscape:pageopacity="0"
   inkscape:pageshadow="2"
   inkscape:window-width="1920"
   inkscape:window-height="1017"
   id="namedview164"
   showgrid="false"
   inkscape:zoom="1.6288777"
   inkscape:cx="256.00449"
   inkscape:cy="256.00449"
   inkscape:window-x="0"
   inkscape:window-y="30"
   inkscape:window-maximized="1"
   inkscape:current-layer="Capa_1" />
<g
   id="g113">
	<g
   id="g111">
		<path
   d="M370.634,395.38l4.715-0.917c5.547-1.067,136.661-26.773,136.661-95.808c0-21.461-6.933-36.8-20.651-45.611    c-19.797-12.757-47.531-7.168-64.683-1.707v-16.683c0-17.643-14.357-32-32-32H96.009c-17.643,0-32,14.357-32,32v21.333    c0,63.637,29.675,122.027,78.827,160H10.676c-4.309,0-8.213,2.603-9.856,6.592c-1.664,3.989-0.747,8.576,2.304,11.627    l23.915,23.915c14.123,14.101,32.875,21.867,52.8,21.867h330.987c19.648,0,38.891-7.979,52.8-21.867l23.915-23.915    c3.051-3.051,3.968-7.637,2.304-11.627c-1.664-3.989-5.547-6.592-9.856-6.592H347.807    C356.02,409.673,363.593,402.783,370.634,395.38z M425.418,274.313c13.483-5.12,40.405-12.373,54.4-3.307    c7.317,4.672,10.859,13.739,10.859,27.648c0,35.477-59.307,59.221-98.496,69.931C410.783,340.809,422.324,308.596,425.418,274.313    z"
   id="path109" />
	</g>
</g>



<g
   id="g133">
</g>
<g
   id="g135">
</g>
<g
   id="g137">
</g>
<g
   id="g139">
</g>
<g
   id="g141">
</g>
<g
   id="g143">
</g>
<g
   id="g145">
</g>
<g
   id="g147">
</g>
<g
   id="g149">
</g>
<g
   id="g151">
</g>
<g
   id="g153">
</g>
<g
   id="g155">
</g>
<g
   id="g157">
</g>
<g
   id="g159">
</g>
<g
   id="g161">
</g>
</svg>