<?xml version="1.0" encoding="UTF-8" standalone="no"?>
<!-- Generator: Adobe Illustrator 19.0.0, SVG Export Plug-In . SVG Version: 6.00 Build 0)  -->

<svg
   xmlns:dc="http://purl.org/dc/elements/1.1/"
   xmlns:cc="http://creativecommons.org/ns#"
   xmlns:rdf="http://www.w3.org/1999/02/22-rdf-syntax-ns#"
   xmlns:svg="http://www.w3.org/2000/svg"
   xmlns="http://www.w3.org/2000/svg"
   xmlns:sodipodi="http://sodipodi.sourceforge.net/DTD/sodipodi-0.dtd"
   xmlns:inkscape="http://www.inkscape.org/namespaces/inkscape"
   version="1.1"
   id="Capa_1"
   x="0px"
   y="0px"
   viewBox="0 0 511.988 511.988"
   style="enable-background:new 0 0 511.988 511.988;"
   xml:space="preserve"
   sodipodi:docname="caffeine-off-symbolic.svg"
   inkscape:version="0.92.3 (2405546, 2018-03-11)"><metadata
   id="metadata192"><rdf:RDF><cc:Work
       rdf:about=""><dc:format>image/svg+xml</dc:format><dc:type
         rdf:resource="http://purl.org/dc/dcmitype/StillImage" /><dc:title></dc:title></cc:Work></rdf:RDF></metadata><defs
   id="defs190" /><sodipodi:namedview
   pagecolor="#ffffff"
   bordercolor="#666666"
   borderopacity="1"
   objecttolerance="10"
   gridtolerance="10"
   guidetolerance="10"
   inkscape:pageopacity="0"
   inkscape:pageshadow="2"
   inkscape:window-width="1920"
   inkscape:window-height="1017"
   id="namedview188"
   showgrid="false"
   inkscape:zoom="1.6289444"
   inkscape:cx="255.994"
   inkscape:cy="255.994"
   inkscape:window-x="0"
   inkscape:window-y="30"
   inkscape:window-maximized="1"
   inkscape:current-layer="Capa_1" />
<g
   id="g125">
	<g
   id="g123">
		<path
   d="M394.655,202.654H95.988c-17.643,0-32,14.357-32,32v21.333c0,76.117,42.048,145.152,109.717,180.16    c5.227,2.688,11.669,0.661,14.379-4.587c2.688-5.227,0.661-11.669-4.587-14.379c-60.544-31.317-98.176-93.077-98.176-161.195    v-21.333c0-5.888,4.779-10.667,10.667-10.667h298.667c5.888,0,10.667,4.779,10.667,10.667v21.333    c0,68.117-37.632,129.877-98.197,161.173c-5.248,2.709-7.275,9.152-4.587,14.379c1.899,3.669,5.632,5.781,9.493,5.781    c1.664,0,3.328-0.384,4.885-1.195c67.691-34.987,109.739-104,109.739-180.139v-21.333    C426.655,217.011,412.297,202.654,394.655,202.654z"
   id="path121" />
	</g>
</g>
<g
   id="g131">
	<g
   id="g129">
		<path
   d="M489.865,422.558c-1.664-3.989-5.547-6.592-9.856-6.592H10.676c-4.309,0-8.192,2.603-9.856,6.592    c-1.664,3.989-0.747,8.576,2.304,11.627l23.915,23.936c14.123,14.101,32.853,21.867,52.8,21.867h330.965    c19.947,0,38.699-7.765,52.843-21.867l23.915-23.936C490.612,431.134,491.529,426.547,489.865,422.558z M448.543,443.038    c-10.069,10.069-23.488,15.616-37.717,15.616H79.839c-14.229,0-27.648-5.547-37.717-15.616l-5.717-5.717H454.26L448.543,443.038z"
   id="path127" />
	</g>
</g>
<g
   id="g137">
	<g
   id="g135">
		<path
   d="M491.359,253.022c-28.736-18.475-74.645,1.579-79.787,3.904c-5.355,2.453-7.744,8.768-5.291,14.144    c2.453,5.376,8.747,7.744,14.144,5.291c10.283-4.672,43.264-15.744,59.392-5.355c7.275,4.672,10.837,13.739,10.837,27.648    c0,42.709-86.144,68.523-119.403,74.88l-7.552,1.493c-5.781,1.131-9.536,6.741-8.405,12.523c1.003,5.077,5.461,8.597,10.453,8.597    c0.683,0,1.365-0.064,2.069-0.213l7.488-1.472c5.589-1.067,136.683-26.773,136.683-95.808    C511.988,277.193,505.034,261.854,491.359,253.022z"
   id="path133" />
	</g>
</g>



<g
   id="g157">
</g>
<g
   id="g159">
</g>
<g
   id="g161">
</g>
<g
   id="g163">
</g>
<g
   id="g165">
</g>
<g
   id="g167">
</g>
<g
   id="g169">
</g>
<g
   id="g171">
</g>
<g
   id="g173">
</g>
<g
   id="g175">
</g>
<g
   id="g177">
</g>
<g
   id="g179">
</g>
<g
   id="g181">
</g>
<g
   id="g183">
</g>
<g
   id="g185">
</g>
</svg>