<?xml version="1.0" encoding="UTF-8" standalone="no"?>
<!-- Generator: Adobe Illustrator 19.0.0, SVG Export Plug-In . SVG Version: 6.00 Build 0)  -->

<svg
   xmlns:dc="http://purl.org/dc/elements/1.1/"
   xmlns:cc="http://creativecommons.org/ns#"
   xmlns:rdf="http://www.w3.org/1999/02/22-rdf-syntax-ns#"
   xmlns:svg="http://www.w3.org/2000/svg"
   xmlns="http://www.w3.org/2000/svg"
   xmlns:sodipodi="http://sodipodi.sourceforge.net/DTD/sodipodi-0.dtd"
   xmlns:inkscape="http://www.inkscape.org/namespaces/inkscape"
   version="1.1"
   id="Capa_1"
   x="0px"
   y="0px"
   viewBox="0 0 512.009 512.009"
   style="enable-background:new 0 0 512.009 512.009;"
   xml:space="preserve"
   sodipodi:docname="caffeine-on-symbolic.svg"
   inkscape:version="0.92.3 (2405546, 2018-03-11)"><metadata
   id="metadata168"><rdf:RDF><cc:Work
       rdf:about=""><dc:format>image/svg+xml</dc:format><dc:type
         rdf:resource="http://purl.org/dc/dcmitype/StillImage" /><dc:title></dc:title></cc:Work></rdf:RDF></metadata><defs
   id="defs166" /><sodipodi:namedview
   pagecolor="#ffffff"
   bordercolor="#666666"
   borderopacity="1"
   objecttolerance="10"
   gridtolerance="10"
   guidetolerance="10"
   inkscape:pageopacity="0"
   inkscape:pageshadow="2"
   inkscape:window-width="1920"
   inkscape:window-height="1017"
   id="namedview164"
   showgrid="false"
   inkscape:zoom="1.6288777"
   inkscape:cx="256.00449"
   inkscape:cy="256.00449"
   inkscape:window-x="0"
   inkscape:window-y="30"
   inkscape:window-maximized="1"
   inkscape:current-layer="Capa_1" />

<g
   id="g119">
	<g
   id="g117">
		<path
   d="M328.415,113.332c17.344-21.675,17.344-55.616,0-77.291c-3.733-4.608-10.432-5.312-14.997-1.664    c-4.608,3.669-5.333,10.389-1.664,14.997c11.008,13.717,11.008,36.907-0.043,50.667c-17.365,21.653-17.365,55.616-0.021,77.291    c2.133,2.645,5.205,4.011,8.341,4.011c2.347,0,4.715-0.768,6.677-2.347c4.608-3.669,5.333-10.389,1.664-14.997    C317.364,150.281,317.364,127.092,328.415,113.332z"
   id="path115" />
	</g>
</g>
<g
   id="g125">
	<g
   id="g123">
		<path
   d="M264.308,113.332c17.365-21.675,17.365-55.616,0-77.291c-3.669-4.587-10.368-5.333-14.997-1.664    c-4.608,3.669-5.333,10.389-1.664,14.997c10.987,13.717,10.987,36.907-0.021,50.667c-17.365,21.653-17.365,55.616,0,77.291    c2.112,2.645,5.205,4.011,8.341,4.011c2.325,0,4.693-0.768,6.656-2.347c4.587-3.669,5.333-10.389,1.664-14.997    C253.3,150.281,253.3,127.092,264.308,113.332z"
   id="path121" />
	</g>
</g>
<g
   id="g131">
	<g
   id="g129">
		<path
   d="M200.394,113.311c17.344-21.675,17.344-55.616,0-77.291c-3.669-4.587-10.389-5.355-14.997-1.643    c-4.587,3.669-5.333,10.389-1.643,14.976c10.987,13.717,10.987,36.907-0.021,50.667c-17.387,21.675-17.387,55.637-0.021,77.312    c2.112,2.624,5.205,3.989,8.341,3.989c2.325,0,4.693-0.768,6.656-2.347c4.608-3.669,5.333-10.389,1.664-14.997    C189.385,150.26,189.385,127.071,200.394,113.311z"
   id="path127" />
	</g>
</g>
<g
   id="g133">
</g>
<g
   id="g135">
</g>
<g
   id="g137">
</g>
<g
   id="g139">
</g>
<g
   id="g141">
</g>
<g
   id="g143">
</g>
<g
   id="g145">
</g>
<g
   id="g147">
</g>
<g
   id="g149">
</g>
<g
   id="g151">
</g>
<g
   id="g153">
</g>
<g
   id="g155">
</g>
<g
   id="g157">
</g>
<g
   id="g159">
</g>
<g
   id="g161">
</g>
</svg>